# AST/ASF file generated using VICON BodyLanguage
# -----------------------------------------------
:version 1.10
:name VICON
:units
  mass 1.0
  length 0.45
  angle deg
:documentation
   .ast/.asf automatically generated from VICON data using
   VICON BodyBuilder and BodyLanguage model FoxedUp or BRILLIANT.MOD
:root
   order TX TY TZ RX RY RZ
   axis XYZ
   position 0 0 0  
   orientation 0 0 0 
:bonedata
  begin
     id 1 
     name lhipjoint
     direction 0.623529 -0.717805 0.309788 
     length 2.23224 
     axis 0 0 0  XYZ
  end
  begin
     id 2 
     name lfemur
     direction 0.34202 -0.939693 0  
     length 7.11402  
     axis 0 0 20  XYZ
    dof rx ry rz
    limits (-160.0 20.0)
           (-70.0 70.0)
           (-60.0 70.0)
  end
  begin
     id 3 
     name ltibia
     direction 0.34202 -0.939693 0   
     length 6.78496   
     axis 0 0 20   XYZ
    dof rx
    limits (-10.0 170.0)
  end
  begin
     id 4 
     name lfoot
     direction 0.125078 -0.343648 0.930732   
     length 1.84054   
     axis -90 7.62852e-016 20   XYZ
    dof rx rz
    limits (-45.0 90.0)
           (-70.0 20.0)
  end
  begin
     id 5 
     name ltoes
     direction 1.53565e-011 -4.21893e-011 1   
     length 0.916474   
     axis -90 7.62852e-016 20   XYZ
    dof rx
    limits (-90.0 20.0)
  end
  begin
     id 6 
     name rhipjoint
     direction -0.564688 -0.757748 0.327026   
     length 2.11457  
     axis 0 0 0  XYZ 
  end
  begin
     id 7 
     name rfemur
     direction -0.34202 -0.939693 0   
     length 7.14609   
     axis 0 0 -20   XYZ
    dof rx ry rz
    limits (-160.0 20.0)
           (-70.0 70.0)
           (-70.0 60.0)
  end
  begin
     id 8 
     name rtibia
     direction -0.34202 -0.939693 0   
     length 6.78101   
     axis 0 0 -20   XYZ
    dof rx
    limits (-10.0 170.0)
 end
 begin
     id 9 
     name rfoot
     direction -0.0992671 -0.272734 0.956955   
     length 1.96168  
     axis -90 -7.62852e-016 -20   XYZ
    dof rx rz
    limits (-45.0 90.0)
           (-20.0 70.0)
  end
  begin
     id 10 
     name rtoes
     direction -1.5356e-011 -4.21891e-011 1   
     length 0.982933   
     axis -90 -7.62852e-016 -20   XYZ
    dof rx
    limits (-90.0 20.0)
  end
  begin
     id 11 
     name lowerback
     direction -0.00596953 0.998668 0.0512524   
     length 1.87557   
     axis 0 0 0   XYZ
    dof rx ry rz
    limits (-20.0 45.0)
           (-30.0 30.0)
           (-30.0 30.0)
  end
  begin
     id 12 
     name upperback
     direction 0.00584879 0.999652 0.0257308   
     length 1.87883   
     axis 0 0 0   XYZ
    dof rx ry rz
    limits (-20.0 45.0)
           (-30.0 30.0)
           (-30.0 30.0)
  end
  begin
     id 13 
     name thorax
     direction 0.010104 0.999947 0.00178881   
     length 1.87779   
     axis 0 0 0   XYZ
    dof rx ry rz
    limits (-20.0 45.0)
           (-30.0 30.0)
           (-30.0 30.0)
  end
  begin
     id 14 
     name lowerneck
     direction 0.0120771 0.995934 -0.0892773   
     length 1.40897   
     axis 0 0 0   XYZ
    dof rx ry rz
    limits (-20.0 45.0)
           (-30.0 30.0)
           (-30.0 30.0)
  end
  begin
     id 15 
     name upperneck
     direction -0.030568 0.999465 -0.0116366   
     length 1.38661   
     axis 0 0 0   XYZ
    dof rx ry rz
    limits (-20.0 45.0)
           (-30.0 30.0)
           (-30.0 30.0)
  end
  begin
     id 16
     name head
     direction -0.0170715 0.999854 -0.00104426  
     length 1.47052  
     axis 0 0 0   XYZ
    dof rx ry rz
    limits (-20.0 45.0)
           (-30.0 30.0)
           (-30.0 30.0)
  end
  begin
     id 17 
     name lclavicle
     direction 0.977763 0.206143 0.038532  
     length 3.02424  
     axis 0 0 0   XYZ
    dof ry rz
    limits (-20.0 10.0)
           (0.0 20.0)
  end
  begin
     id 18 
     name lhumerus
     direction 1 -4.48965e-011 -2.62654e-027   
     length 4.68382   
     axis 180 -30 -90   XYZ
    dof rx ry rz
    limits (-60.0 90.0)
           (-90.0 90.0)
           (-90.0 90.0)
  end
  begin
     id 19
     name lradius
     direction 1 -4.48973e-011 -1.54954e-027   
     length 2.98124   
     axis 180 -30 -90   XYZ
    dof rx
    limits (-10.0 170.0)
  end
  begin
     id 20
     name lwrist
     direction 1 -4.48959e-011 7.20928e-028   
     length 1.49062   
     axis -5.52449e-016 90 90   XYZ
    dof ry
    limits (-180.0 0.0)
 end
  begin
     id 21 
     name lhand
     direction 1 -4.48971e-011 1.44186e-027   
     length 0.707595   
     axis -9.20027e-016 90 90   XYZ
    dof rx rz
    limits (-90.0 90.0)
           (-45.0 45.0)
  end
  begin
     id 22 
     name lfingers
     direction 1 -4.48985e-011 2.88371e-027   
     length 0.570481   
     axis -1.84005e-015 90 90   XYZ
    dof rx
    limits (0.0 90.0)
  end
  begin
     id 23
     name lthumb
     direction 0.707107 -6.34929e-011 0.707107   
     length 0.819101   
     axis -90 45 2.85299e-015   XYZ
    dof rx rz
    limits (-45.0 45.0)
           (-45.0 45.0)
  end
  begin
     id 24 
     name rclavicle
     direction -0.958661 0.284411 -0.00895327   
     length 3.11921  
     axis 0 0 0   XYZ 
    dof ry rz
    limits (-10.0 20.0)
           (-20.0 0.0)
  end
  begin
     id 25 
     name rhumerus
     direction -1 -4.48963e-011 -4.22193e-027  
     length 4.75876   
     axis 180 30 90   XYZ
    dof rx ry rz
    limits (-90.0 60.0)
           (-90.0 90.0)
           (-90.0 90.0)
  end
  begin
     id 26 
     name rradius
     direction -1 -4.48968e-011 -1.07616e-027   
     length 2.93293   
     axis 180 30 90   XYZ
    dof rx
    limits (-10.0 170.0)
  end
  begin
     id 27 
     name rwrist
     direction -1 -4.48965e-011 7.20928e-028   
     length 1.46647   
     axis -5.52449e-016 -90 -90   XYZ
    dof ry
    limits (-180.0 0.0)
  end
  begin
     id 28
     name rhand
     direction -1 -4.48971e-011 1.44186e-027   
     length 0.831748   
     axis -9.20027e-016 -90 -90   XYZ
    dof rx rz
    limits (-90.0 90.0)
           (-45.0 45.0)
  end
  begin
     id 29
     name rfingers
     direction -1 -4.48961e-011 2.88371e-027   
     length 0.670577   
     axis -1.84005e-015 -90 -90   XYZ
    dof rx
    limits (0.0 90.0)
  end
  begin
     id 30
     name rthumb
     direction -0.707107 -6.34929e-011 0.707107   
     length 0.962818   
     axis -90 -45 -2.85299e-015   XYZ
    dof rx rz
    limits (-45.0 45.0)
           (-45.0 45.0)
  end
:hierarchy
  begin
    root lhipjoint rhipjoint lowerback
    lhipjoint lfemur
    lfemur ltibia
    ltibia lfoot
    lfoot ltoes
    rhipjoint rfemur
    rfemur rtibia
    rtibia rfoot
    rfoot rtoes
    lowerback upperback
    upperback thorax
    thorax lowerneck lclavicle rclavicle
    lowerneck upperneck
    upperneck head
    lclavicle lhumerus
    lhumerus lradius
    lradius lwrist
    lwrist lhand lthumb
    lhand lfingers
    rclavicle rhumerus
    rhumerus rradius
    rradius rwrist
    rwrist rhand rthumb
    rhand rfingers
  end

#!OML:ASF E:\id_vita\Project 1\Capture day 1\Session 1\Female.ASF
:FULLY-SPECIFIED
:DEGREES
81
root 9.75745 24.8866 0.401738 -126.847 -85.9242 150.027
lowerback -6.79146 0.276982 -4.08728
upperback -3.86778 0.490783 -1.18066
thorax -0.214145 0.246819 1.10879
lowerneck -6.24705 -1.57866 -6.08274
upperneck -0.00781741 -1.90892 8.86895
head 1.27759 -0.844641 3.9494
rclavicle -6.36111e-015 -2.64384e-014
rhumerus 16.0497 -6.19048 -34.4947
rradius 108.754
rwrist -3.2098
rhand -34.0614 15.6511
rfingers 7.12502
rthumb -7.23881 -14.2051
lclavicle -6.36111e-015 -2.64384e-014
lhumerus 32.7627 7.45121 25.6555
lradius 94.9462
lwrist -5.13698
lhand -27.2471 28.0069
lfingers 7.12502
lthumb -0.658788 57.9856
rfemur -65.4951 -5.15148 20.8299
rtibia 76.4111
rfoot -21.1007 -17.3583
rtoes -24.2216
lfemur -63.4805 -2.11126 -21.7901
ltibia 77.0479
lfoot -26.0969 16.5847
ltoes -20.1274
82
root 9.79299 24.8398 0.399155 -125.282 -86.0116 148.478
lowerback -6.83796 0.240708 -4.11845
upperback -3.85709 0.447194 -1.16313
thorax -0.175766 0.224908 1.14185
lowerneck -6.00416 -1.54865 -6.16329
upperneck -0.517299 -1.84825 8.89435
head 1.06408 -0.825313 3.97343
rclavicle -8.99501e-015 1.90833e-014
rhumerus 16.1325 -5.89662 -33.3237
rradius 108.143
rwrist -3.4285
rhand -34.2073 15.82
rfingers 7.12502
rthumb -7.37969 -14.0313
lclavicle -8.99501e-015 1.90833e-014
lhumerus 32.7193 7.04246 24.5415
lradius 94.4981
lwrist -4.90654
lhand -26.7133 28.2405
lfingers 7.12502
lthumb -0.143226 58.2201
rfemur -65.9438 -5.22613 20.907
rtibia 76.9323
rfoot -21.3993 -17.5691
rtoes -23.6598
lfemur -63.8373 -2.34101 -21.8265
ltibia 77.2817
lfoot -26.0764 17.1571
ltoes -20.0963
83
root 9.83668 24.804 0.409211 -123.936 -86.1727 147.156
lowerback -6.65833 0.207925 -3.89733
upperback -3.95458 0.376814 -1.16441
thorax -0.369885 0.189942 1.01101
lowerneck -5.81819 -1.44481 -6.14715
upperneck -0.831381 -1.70502 8.97225
head 0.917441 -0.761139 4.00106
rclavicle -5.46658e-015 5.10877e-014
rhumerus 16.351 -5.56944 -32.1079
rradius 107.466
rwrist -3.50611
rhand -34.6729 16.2314
rfingers 7.12502
rthumb -7.82907 -13.6036
lclavicle -5.46658e-015 5.10877e-014
lhumerus 32.7107 6.62817 23.3027
lradius 94.034
lwrist -4.44149
lhand -26.2661 28.3564
lfingers 7.12502
lthumb 0.288696 58.336
rfemur -66.3486 -5.4169 21.0537
rtibia 77.3138
rfoot -21.5228 -17.8293
rtoes -23.744
lfemur -64.2148 -2.74346 -21.7807
ltibia 77.4101
lfoot -25.9061 17.7687
ltoes -19.6968
84
root 9.86831 24.7681 0.403612 -121.696 -86.2515 145.03
lowerback -6.85499 0.189459 -4.02739
upperback -3.95754 0.368194 -1.11195
thorax -0.265667 0.186018 1.13821
lowerneck -6.15159 -1.52641 -6.05292
upperneck -0.822161 -1.80444 8.78655
head 0.984008 -0.80613 3.91304
rclavicle -1.93815e-015 -1.8487e-014
rhumerus 16.693 -5.47197 -30.7726
rradius 106.84
rwrist -3.49646
rhand -34.7807 16.5464
rfingers 7.12502
rthumb -7.93311 -13.2847
lclavicle -1.93815e-015 -1.8487e-014
lhumerus 32.7772 6.30418 22.1598
lradius 93.6003
lwrist -3.73253
lhand -26.1316 28.2733
lfingers 7.12502
lthumb 0.418612 58.2526
rfemur -66.7942 -5.44166 21.1274
rtibia 77.5818
rfoot -21.3567 -18.2444
rtoes -23.8449
lfemur -64.5679 -3.06836 -21.7575
ltibia 77.429
lfoot -25.9361 18.2268
ltoes -18.2728
85
root 9.90624 24.7384 0.396451 -120.598 -86.4608 144.075
lowerback -7.14778 0.195613 -3.99793
upperback -3.88098 0.394135 -1.01125
thorax -0.0261181 0.195445 1.22896
lowerneck -5.84969 -1.50828 -6.25642
upperneck -1.55542 -1.7458 8.86455
head 0.691138 -0.790978 3.98084
rclavicle -7.40473e-015 2.94201e-014
rhumerus 16.9772 -5.55796 -29.3157
rradius 106.309
rwrist -3.278
rhand -35.1939 16.9574
rfingers 7.12502
rthumb -8.3319 -12.8583
lclavicle -7.40473e-015 2.94201e-014
lhumerus 33.076 6.15043 21.1828
lradius 93.0556
lwrist -3.05912
lhand -25.7282 28.3873
lfingers 7.12502
lthumb 0.808219 58.3656
rfemur -67.1979 -5.3779 21.3302
rtibia 77.7031
rfoot -21.1244 -18.6542
rtoes -23.7082
lfemur -64.89 -3.32769 -21.614
ltibia 77.3705
lfoot -26.1397 18.6417
ltoes -16.4262
86
root 9.95279 24.7274 0.39179 -119.308 -86.7092 142.875
lowerback -6.87702 0.207262 -3.87621
upperback -4.08744 0.377858 -0.928777
thorax -0.387895 0.193238 1.24241
lowerneck -5.67007 -1.6732 -6.42813
upperneck -1.86917 -1.9489 8.90117
head 0.577531 -0.898599 4.02222
rclavicle 9.11925e-015 -5.1684e-015
rhumerus 17.1425 -5.31987 -27.8433
rradius 105.68
rwrist -2.88544
rhand -35.7958 16.9266
rfingers 7.12502
rthumb -8.91276 -12.8651
lclavicle 9.11925e-015 -5.1684e-015
lhumerus 33.1748 5.76749 20.0771
lradius 92.501
lwrist -2.36504
lhand -24.8617 28.3353
lfingers 7.12502
lthumb 1.64518 58.3087
rfemur -67.4705 -5.32091 21.525
rtibia 77.6443
rfoot -21.0206 -18.8631
rtoes -23.3229
lfemur -65.111 -3.60633 -21.4778
ltibia 77.1845
lfoot -25.6359 19.363
ltoes -17.2029
87
root 10.002 24.733 0.388353 -116.839 -86.8812 140.469
lowerback -6.87331 0.160453 -3.9069
upperback -4.05344 0.320187 -0.838253
thorax -0.352777 0.165902 1.34925
lowerneck -5.25418 -1.69138 -6.72954
upperneck -2.82091 -1.93556 9.2227
head 0.202942 -0.909918 4.20092
rclavicle 1.3418e-015 -1.59028e-015
rhumerus 17.8815 -5.38898 -26.558
rradius 104.852
rwrist -2.62837
rhand -35.92 16.5816
rfingers 7.12502
rthumb -9.0326 -13.205
lclavicle 1.3418e-015 -1.59028e-015
lhumerus 33.2749 5.7642 18.9556
lradius 91.8877
lwrist -1.71373
lhand -24.1051 27.9933
lfingers 7.12502
lthumb 2.37586 57.9599
rfemur -67.6344 -5.29222 21.5851
rtibia 77.3955
rfoot -20.9655 -18.9001
rtoes -22.6287
lfemur -65.2812 -4.00089 -21.3585
ltibia 76.8504
lfoot -25.2446 19.7814
ltoes -17.0587
88
root 10.0548 24.7459 0.384195 -113.873 -87.0131 137.589
lowerback -6.96467 0.0894471 -3.99452
upperback -3.98852 0.239084 -0.77706
thorax -0.231997 0.125367 1.45667
lowerneck -5.51081 -1.72049 -6.3879
upperneck -2.94025 -1.97715 8.79665
head 0.202616 -0.931655 3.97797
rclavicle -3.18055e-015 3.00165e-014
rhumerus 18.6199 -5.59448 -25.3873
rradius 104.031
rwrist -2.55369
rhand -36.205 16.8978
rfingers 7.12502
rthumb -9.30766 -12.8767
lclavicle -3.18055e-015 3.00165e-014
lhumerus 33.6072 5.80919 17.8248
lradius 91.086
lwrist -1.13233
lhand -24.073 27.862
lfingers 7.12502
lthumb 2.40683 57.8282
rfemur -67.7436 -5.24459 21.595
rtibia 76.9619
rfoot -20.7584 -18.9929
rtoes -22.004
lfemur -65.4488 -4.40329 -21.2153
ltibia 76.3875
lfoot -25.1782 19.7983
ltoes -15.0491
89
root 10.1129 24.7745 0.37814 -111.721 -87.1654 135.446
lowerback -6.79353 0.0519332 -3.99579
upperback -4.00545 0.181241 -0.726021
thorax -0.341257 0.0997495 1.50566
lowerneck -5.69079 -1.67129 -6.20072
upperneck -2.94307 -1.91459 8.57462
head 0.222576 -0.899547 3.86263
rclavicle 6.18717e-015 1.26228e-014
rhumerus 19.2897 -5.77871 -24.2452
rradius 103.283
rwrist -2.5048
rhand -36.8151 17.2923
rfingers 7.12502
rthumb -9.89629 -12.4551
lclavicle 6.18717e-015 1.26228e-014
lhumerus 34.1243 5.77315 16.6996
lradius 90.0979
lwrist -0.582143
lhand -24.6118 27.8224
lfingers 7.12502
lthumb 1.88651 57.7938
rfemur -67.6443 -5.1835 21.6513
rtibia 76.3239
rfoot -20.5096 -19.0168
rtoes -21.4117
lfemur -65.4216 -4.66159 -21.0543
ltibia 75.7688
lfoot -25.4452 19.5476
ltoes -11.9785
